M48
;GenerationSoftware,Autodesk,EAGLE,9.6.2*%
;CreationDate,2021-05-27T22:08:03Z*%
FMAT,2
ICI,OFF
METRIC,TZ,000.000
T2C0.305
T1C1.016
%
G90
M71
T1
X120142Y150622
X54102Y75946
X1270Y8890
X1270Y6350
X1270Y3810
X1270Y1270
X14478Y8890
X14478Y6350
X14478Y3810
X14478Y1270
X27686Y8890
X27686Y6350
X27686Y3810
X27686Y1270
X40894Y8890
X40894Y6350
X40894Y3810
X40894Y1270
X54102Y8890
X54102Y6350
X54102Y3810
X54102Y1270
X67310Y8890
X67310Y6350
X67310Y3810
X67310Y1270
X80518Y8890
X80518Y6350
X80518Y3810
X80518Y1270
X93726Y8890
X93726Y6350
X93726Y3810
X93726Y1270
X106934Y8890
X106934Y6350
X106934Y3810
X106934Y1270
X120142Y8890
X120142Y6350
X120142Y3810
X120142Y1270
X1270Y19558
X1270Y17018
X1270Y14478
X1270Y11938
X14478Y19558
X14478Y17018
X14478Y14478
X14478Y11938
X27686Y19558
X27686Y17018
X27686Y14478
X27686Y11938
X40894Y19558
X40894Y17018
X40894Y14478
X40894Y11938
X54102Y19558
X54102Y17018
X54102Y14478
X54102Y11938
X67310Y19558
X67310Y17018
X67310Y14478
X67310Y11938
X80518Y19558
X80518Y17018
X80518Y14478
X80518Y11938
X93726Y19558
X93726Y17018
X93726Y14478
X93726Y11938
X106934Y19558
X106934Y17018
X106934Y14478
X106934Y11938
X120142Y19558
X120142Y17018
X120142Y14478
X120142Y11938
X1270Y30226
X1270Y27686
X1270Y25146
X1270Y22606
X14478Y30226
X14478Y27686
X14478Y25146
X14478Y22606
X27686Y30226
X27686Y27686
X27686Y25146
X27686Y22606
X40894Y30226
X40894Y27686
X40894Y25146
X40894Y22606
X54102Y30226
X54102Y27686
X54102Y25146
X54102Y22606
X67310Y30226
X67310Y27686
X67310Y25146
X67310Y22606
X80518Y30226
X80518Y27686
X80518Y25146
X80518Y22606
X93726Y30226
X93726Y27686
X93726Y25146
X93726Y22606
X106934Y30226
X106934Y27686
X106934Y25146
X106934Y22606
X120142Y30226
X120142Y27686
X120142Y25146
X120142Y22606
X1270Y40894
X1270Y38354
X1270Y35814
X1270Y33274
X14478Y40894
X14478Y38354
X14478Y35814
X14478Y33274
X27686Y40894
X27686Y38354
X27686Y35814
X27686Y33274
X40894Y40894
X40894Y38354
X40894Y35814
X40894Y33274
X54102Y40894
X54102Y38354
X54102Y35814
X54102Y33274
X67310Y40894
X67310Y38354
X67310Y35814
X67310Y33274
X80518Y40894
X80518Y38354
X80518Y35814
X80518Y33274
X93726Y40894
X93726Y38354
X93726Y35814
X93726Y33274
X106934Y40894
X106934Y38354
X106934Y35814
X106934Y33274
X120142Y40894
X120142Y38354
X120142Y35814
X120142Y33274
X1270Y51562
X1270Y49022
X1270Y46482
X1270Y43942
X14478Y51562
X14478Y49022
X14478Y46482
X14478Y43942
X27686Y51562
X27686Y49022
X27686Y46482
X27686Y43942
X40894Y51562
X40894Y49022
X40894Y46482
X40894Y43942
X54102Y51562
X54102Y49022
X54102Y46482
X54102Y43942
X67310Y51562
X67310Y49022
X67310Y46482
X67310Y43942
X80518Y51562
X80518Y49022
X80518Y46482
X80518Y43942
X93726Y51562
X93726Y49022
X93726Y46482
X93726Y43942
X106934Y51562
X106934Y49022
X106934Y46482
X106934Y43942
X120142Y51562
X120142Y49022
X120142Y46482
X120142Y43942
X1270Y62230
X1270Y59690
X1270Y57150
X1270Y54610
X14478Y62230
X14478Y59690
X14478Y57150
X14478Y54610
X27686Y62230
X27686Y59690
X27686Y57150
X27686Y54610
X40894Y62230
X40894Y59690
X40894Y57150
X40894Y54610
X54102Y62230
X54102Y59690
X54102Y57150
X54102Y54610
X67310Y62230
X67310Y59690
X67310Y57150
X67310Y54610
X80518Y62230
X80518Y59690
X80518Y57150
X80518Y54610
X93726Y62230
X93726Y59690
X93726Y57150
X93726Y54610
X106934Y62230
X106934Y59690
X106934Y57150
X106934Y54610
X120142Y62230
X120142Y59690
X120142Y57150
X120142Y54610
X1270Y72898
X1270Y70358
X1270Y67818
X1270Y65278
X14478Y72898
X14478Y70358
X14478Y67818
X14478Y65278
X27686Y72898
X27686Y70358
X27686Y67818
X27686Y65278
X40894Y72898
X40894Y70358
X40894Y67818
X40894Y65278
X54102Y72898
X54102Y70358
X54102Y67818
X54102Y65278
X67310Y72898
X67310Y70358
X67310Y67818
X67310Y65278
X80518Y72898
X80518Y70358
X80518Y67818
X80518Y65278
X93726Y72898
X93726Y70358
X93726Y67818
X93726Y65278
X106934Y72898
X106934Y70358
X106934Y67818
X106934Y65278
X120142Y72898
X120142Y70358
X120142Y67818
X120142Y65278
X1270Y83566
X1270Y81026
X1270Y78486
X1270Y75946
X14478Y83566
X14478Y81026
X14478Y78486
X14478Y75946
X27686Y83566
X27686Y81026
X27686Y78486
X27686Y75946
X40894Y83566
X40894Y81026
X40894Y78486
X40894Y75946
X54102Y83566
X54102Y81026
X54102Y78486
X67310Y83566
X67310Y81026
X67310Y78486
X67310Y75946
X80518Y83566
X80518Y81026
X80518Y78486
X80518Y75946
X93726Y83566
X93726Y81026
X93726Y78486
X93726Y75946
X106934Y83566
X106934Y81026
X106934Y78486
X106934Y75946
X120142Y83566
X120142Y81026
X120142Y78486
X120142Y75946
X1270Y94234
X1270Y91694
X1270Y89154
X1270Y86614
X14478Y94234
X14478Y91694
X14478Y89154
X14478Y86614
X27686Y94234
X27686Y91694
X27686Y89154
X27686Y86614
X40894Y94234
X40894Y91694
X40894Y89154
X40894Y86614
X54102Y94234
X54102Y91694
X54102Y89154
X54102Y86614
X67310Y94234
X67310Y91694
X67310Y89154
X67310Y86614
X80518Y94234
X80518Y91694
X80518Y89154
X80518Y86614
X93726Y94234
X93726Y91694
X93726Y89154
X93726Y86614
X106934Y94234
X106934Y91694
X106934Y89154
X106934Y86614
X120142Y94234
X120142Y91694
X120142Y89154
X120142Y86614
X1270Y104902
X1270Y102362
X1270Y99822
X1270Y97282
X14478Y104902
X14478Y102362
X14478Y99822
X14478Y97282
X27686Y104902
X27686Y102362
X27686Y99822
X27686Y97282
X40894Y104902
X40894Y102362
X40894Y99822
X40894Y97282
X54102Y104902
X54102Y102362
X54102Y99822
X54102Y97282
X67310Y104902
X67310Y102362
X67310Y99822
X67310Y97282
X80518Y104902
X80518Y102362
X80518Y99822
X80518Y97282
X93726Y104902
X93726Y102362
X93726Y99822
X93726Y97282
X106934Y104902
X106934Y102362
X106934Y99822
X106934Y97282
X120142Y104902
X120142Y102362
X120142Y99822
X120142Y97282
X1270Y115570
X1270Y113030
X1270Y110490
X1270Y107950
X14478Y115570
X14478Y113030
X14478Y110490
X14478Y107950
X27686Y115570
X27686Y113030
X27686Y110490
X27686Y107950
X40894Y115570
X40894Y113030
X40894Y110490
X40894Y107950
X54102Y115570
X54102Y113030
X54102Y110490
X54102Y107950
X67310Y115570
X67310Y113030
X67310Y110490
X67310Y107950
X80518Y115570
X80518Y113030
X80518Y110490
X80518Y107950
X93726Y115570
X93726Y113030
X93726Y110490
X93726Y107950
X106934Y115570
X106934Y113030
X106934Y110490
X106934Y107950
X120142Y115570
X120142Y113030
X120142Y110490
X120142Y107950
X1270Y126238
X1270Y123698
X1270Y121158
X1270Y118618
X14478Y126238
X14478Y123698
X14478Y121158
X14478Y118618
X27686Y126238
X27686Y123698
X27686Y121158
X27686Y118618
X40894Y126238
X40894Y123698
X40894Y121158
X40894Y118618
X54102Y126238
X54102Y123698
X54102Y121158
X54102Y118618
X67310Y126238
X67310Y123698
X67310Y121158
X67310Y118618
X80518Y126238
X80518Y123698
X80518Y121158
X80518Y118618
X93726Y126238
X93726Y123698
X93726Y121158
X93726Y118618
X106934Y126238
X106934Y123698
X106934Y121158
X106934Y118618
X120142Y126238
X120142Y123698
X120142Y121158
X120142Y118618
X1270Y136906
X1270Y134366
X1270Y131826
X1270Y129286
X14478Y136906
X14478Y134366
X14478Y131826
X14478Y129286
X27686Y136906
X27686Y134366
X27686Y131826
X27686Y129286
X40894Y136906
X40894Y134366
X40894Y131826
X40894Y129286
X54102Y136906
X54102Y134366
X54102Y131826
X54102Y129286
X67310Y136906
X67310Y134366
X67310Y131826
X67310Y129286
X80518Y136906
X80518Y134366
X80518Y131826
X80518Y129286
X93726Y136906
X93726Y134366
X93726Y131826
X93726Y129286
X106934Y136906
X106934Y134366
X106934Y131826
X106934Y129286
X120142Y136906
X120142Y134366
X120142Y131826
X120142Y129286
X1270Y147574
X1270Y145034
X1270Y142494
X1270Y139954
X14478Y147574
X14478Y145034
X14478Y142494
X14478Y139954
X27686Y147574
X27686Y145034
X27686Y142494
X27686Y139954
X40894Y147574
X40894Y145034
X40894Y142494
X40894Y139954
X54102Y147574
X54102Y145034
X54102Y142494
X54102Y139954
X67310Y147574
X67310Y145034
X67310Y142494
X67310Y139954
X80518Y147574
X80518Y145034
X80518Y142494
X80518Y139954
X93726Y147574
X93726Y145034
X93726Y142494
X93726Y139954
X106934Y147574
X106934Y145034
X106934Y142494
X106934Y139954
X120142Y147574
X120142Y145034
X120142Y142494
X120142Y139954
X1270Y158242
X1270Y155702
X1270Y153162
X1270Y150622
X14478Y158242
X14478Y155702
X14478Y153162
X14478Y150622
X27686Y158242
X27686Y155702
X27686Y153162
X27686Y150622
X40894Y158242
X40894Y155702
X40894Y153162
X40894Y150622
X54102Y158242
X54102Y155702
X54102Y153162
X54102Y150622
X67310Y158242
X67310Y155702
X67310Y153162
X67310Y150622
X80518Y158242
X80518Y155702
X80518Y153162
X80518Y150622
X93726Y158242
X93726Y155702
X93726Y153162
X93726Y150622
X106934Y158242
X106934Y155702
X106934Y153162
X106934Y150622
X120142Y158242
X120142Y155702
X120142Y153162
T2
X4699Y58801
X5461Y57912
X5461Y57023
X5461Y56007
X10160Y60960
X10160Y59690
X11430Y57658
X11430Y56134
X10160Y61722
X4699Y60071
X6731Y54610
X11430Y54610
X17907Y58801
X18669Y57912
X18669Y57023
X18669Y56007
X23368Y60960
X23368Y59690
X24638Y57658
X24638Y56134
X23368Y61722
X17907Y60071
X19939Y54610
X24638Y54610
X31115Y58801
X31877Y57912
X31877Y57023
X31877Y56007
X36576Y60960
X36576Y59690
X37846Y57658
X37846Y56134
X36576Y61722
X31115Y60071
X33147Y54610
X37846Y54610
X44323Y58801
X45085Y57912
X45085Y57023
X45085Y56007
X49784Y60960
X49784Y59690
X51054Y57658
X51054Y56134
X49784Y61722
X44323Y60071
X46355Y54610
X51054Y54610
X57531Y58801
X58293Y57912
X58293Y57023
X58293Y56007
X62992Y60960
X62992Y59690
X64262Y57658
X64262Y56134
X62992Y61722
X57531Y60071
X59563Y54610
X64262Y54610
X70739Y58801
X71501Y57912
X71501Y57023
X71501Y56007
X76200Y60960
X76200Y59690
X77470Y57658
X77470Y56134
X76200Y61722
X70739Y60071
X72771Y54610
X77470Y54610
X83947Y58801
X84709Y57912
X84709Y57023
X84709Y56007
X89408Y60960
X89408Y59690
X90678Y57658
X90678Y56134
X89408Y61722
X83947Y60071
X85979Y54610
X90678Y54610
X97155Y58801
X97917Y57912
X97917Y57023
X97917Y56007
X102616Y60960
X102616Y59690
X103886Y57658
X103886Y56134
X102616Y61722
X97155Y60071
X99187Y54610
X103886Y54610
X110363Y58801
X111125Y57912
X111125Y57023
X111125Y56007
X115824Y60960
X115824Y59690
X117094Y57658
X117094Y56134
X115824Y61722
X110363Y60071
X112395Y54610
X117094Y54610
X123571Y58801
X124333Y57912
X124333Y57023
X124333Y56007
X129032Y60960
X129032Y59690
X130302Y57658
X130302Y56134
X129032Y61722
X123571Y60071
X125603Y54610
X130302Y54610
X4699Y69469
X5461Y68580
X5461Y67691
X5461Y66675
X10160Y71628
X10160Y70358
X11430Y68326
X11430Y66802
X10160Y72390
X4699Y70739
X6731Y65278
X11430Y65278
X17907Y69469
X18669Y68580
X18669Y67691
X18669Y66675
X23368Y71628
X23368Y70358
X24638Y68326
X24638Y66802
X23368Y72390
X17907Y70739
X19939Y65278
X24638Y65278
X31115Y69469
X31877Y68580
X31877Y67691
X31877Y66675
X36576Y71628
X36576Y70358
X37846Y68326
X37846Y66802
X36576Y72390
X31115Y70739
X33147Y65278
X37846Y65278
X44323Y69469
X45085Y68580
X45085Y67691
X45085Y66675
X49784Y71628
X49784Y70358
X51054Y68326
X51054Y66802
X49784Y72390
X44323Y70739
X46355Y65278
X51054Y65278
X57531Y69469
X58293Y68580
X58293Y67691
X58293Y66675
X62992Y71628
X62992Y70358
X64262Y68326
X64262Y66802
X62992Y72390
X57531Y70739
X59563Y65278
X64262Y65278
X70739Y69469
X71501Y68580
X71501Y67691
X71501Y66675
X76200Y71628
X76200Y70358
X77470Y68326
X77470Y66802
X76200Y72390
X70739Y70739
X72771Y65278
X77470Y65278
X83947Y69469
X84709Y68580
X84709Y67691
X84709Y66675
X89408Y71628
X89408Y70358
X90678Y68326
X90678Y66802
X89408Y72390
X83947Y70739
X85979Y65278
X90678Y65278
X97155Y69469
X97917Y68580
X97917Y67691
X97917Y66675
X102616Y71628
X102616Y70358
X103886Y68326
X103886Y66802
X102616Y72390
X97155Y70739
X99187Y65278
X103886Y65278
X110363Y69469
X111125Y68580
X111125Y67691
X111125Y66675
X115824Y71628
X115824Y70358
X117094Y68326
X117094Y66802
X115824Y72390
X110363Y70739
X112395Y65278
X117094Y65278
X123571Y69469
X124333Y68580
X124333Y67691
X124333Y66675
X129032Y71628
X129032Y70358
X130302Y68326
X130302Y66802
X129032Y72390
X123571Y70739
X125603Y65278
X130302Y65278
X4699Y80137
X5461Y79248
X5461Y78359
X5461Y77343
X10160Y82296
X10160Y81026
X11430Y78994
X11430Y77470
X10160Y83058
X4699Y81407
X6731Y75946
X11430Y75946
X17907Y80137
X18669Y79248
X18669Y78359
X18669Y77343
X23368Y82296
X23368Y81026
X24638Y78994
X24638Y77470
X23368Y83058
X17907Y81407
X19939Y75946
X24638Y75946
X31115Y80137
X31877Y79248
X31877Y78359
X31877Y77343
X36576Y82296
X36576Y81026
X37846Y78994
X37846Y77470
X36576Y83058
X31115Y81407
X33147Y75946
X37846Y75946
X44323Y80137
X45085Y79248
X45085Y78359
X45085Y77343
X49784Y82296
X49784Y81026
X51054Y78994
X51054Y77470
X49784Y83058
X44323Y81407
X46355Y75946
X51054Y75946
X57531Y80137
X58293Y79248
X58293Y78359
X58293Y77343
X62992Y82296
X62992Y81026
X64262Y78994
X64262Y77470
X62992Y83058
X57531Y81407
X59563Y75946
X64262Y75946
X70739Y80137
X71501Y79248
X71501Y78359
X71501Y77343
X76200Y82296
X76200Y81026
X77470Y78994
X77470Y77470
X76200Y83058
X70739Y81407
X72771Y75946
X77470Y75946
X83947Y80137
X84709Y79248
X84709Y78359
X84709Y77343
X89408Y82296
X89408Y81026
X90678Y78994
X90678Y77470
X89408Y83058
X83947Y81407
X85979Y75946
X90678Y75946
X97155Y80137
X97917Y79248
X97917Y78359
X97917Y77343
X102616Y82296
X102616Y81026
X103886Y78994
X103886Y77470
X102616Y83058
X97155Y81407
X99187Y75946
X103886Y75946
X110363Y80137
X111125Y79248
X111125Y78359
X111125Y77343
X115824Y82296
X115824Y81026
X117094Y78994
X117094Y77470
X115824Y83058
X110363Y81407
X112395Y75946
X117094Y75946
X123571Y80137
X124333Y79248
X124333Y78359
X124333Y77343
X129032Y82296
X129032Y81026
X130302Y78994
X130302Y77470
X129032Y83058
X123571Y81407
X125603Y75946
X130302Y75946
X4699Y90805
X5461Y89916
X5461Y89027
X5461Y88011
X10160Y92964
X10160Y91694
X11430Y89662
X11430Y88138
X10160Y93726
X4699Y92075
X6731Y86614
X11430Y86614
X17907Y90805
X18669Y89916
X18669Y89027
X18669Y88011
X23368Y92964
X23368Y91694
X24638Y89662
X24638Y88138
X23368Y93726
X17907Y92075
X19939Y86614
X24638Y86614
X31115Y90805
X31877Y89916
X31877Y89027
X31877Y88011
X36576Y92964
X36576Y91694
X37846Y89662
X37846Y88138
X36576Y93726
X31115Y92075
X33147Y86614
X37846Y86614
X44323Y90805
X45085Y89916
X45085Y89027
X45085Y88011
X49784Y92964
X49784Y91694
X51054Y89662
X51054Y88138
X49784Y93726
X44323Y92075
X46355Y86614
X51054Y86614
X57531Y90805
X58293Y89916
X58293Y89027
X58293Y88011
X62992Y92964
X62992Y91694
X64262Y89662
X64262Y88138
X62992Y93726
X57531Y92075
X59563Y86614
X64262Y86614
X70739Y90805
X71501Y89916
X71501Y89027
X71501Y88011
X76200Y92964
X76200Y91694
X77470Y89662
X77470Y88138
X76200Y93726
X70739Y92075
X72771Y86614
X77470Y86614
X83947Y90805
X84709Y89916
X84709Y89027
X84709Y88011
X89408Y92964
X89408Y91694
X90678Y89662
X90678Y88138
X89408Y93726
X83947Y92075
X85979Y86614
X90678Y86614
X97155Y90805
X97917Y89916
X97917Y89027
X97917Y88011
X102616Y92964
X102616Y91694
X103886Y89662
X103886Y88138
X102616Y93726
X97155Y92075
X99187Y86614
X103886Y86614
X110363Y90805
X111125Y89916
X111125Y89027
X111125Y88011
X115824Y92964
X115824Y91694
X117094Y89662
X117094Y88138
X115824Y93726
X110363Y92075
X112395Y86614
X117094Y86614
X123571Y90805
X124333Y89916
X124333Y89027
X124333Y88011
X129032Y92964
X129032Y91694
X130302Y89662
X130302Y88138
X129032Y93726
X123571Y92075
X125603Y86614
X130302Y86614
X4699Y101473
X5461Y100584
X5461Y99695
X5461Y98679
X10160Y103632
X10160Y102362
X11430Y100330
X11430Y98806
X10160Y104394
X4699Y102743
X6731Y97282
X11430Y97282
X17907Y101473
X18669Y100584
X18669Y99695
X18669Y98679
X23368Y103632
X23368Y102362
X24638Y100330
X24638Y98806
X23368Y104394
X17907Y102743
X19939Y97282
X24638Y97282
X31115Y101473
X31877Y100584
X31877Y99695
X31877Y98679
X36576Y103632
X36576Y102362
X37846Y100330
X37846Y98806
X36576Y104394
X31115Y102743
X33147Y97282
X37846Y97282
X44323Y101473
X45085Y100584
X45085Y99695
X45085Y98679
X49784Y103632
X49784Y102362
X51054Y100330
X51054Y98806
X49784Y104394
X44323Y102743
X46355Y97282
X51054Y97282
X57531Y101473
X58293Y100584
X58293Y99695
X58293Y98679
X62992Y103632
X62992Y102362
X64262Y100330
X64262Y98806
X62992Y104394
X57531Y102743
X59563Y97282
X64262Y97282
X70739Y101473
X71501Y100584
X71501Y99695
X71501Y98679
X76200Y103632
X76200Y102362
X77470Y100330
X77470Y98806
X76200Y104394
X70739Y102743
X72771Y97282
X77470Y97282
X83947Y101473
X84709Y100584
X84709Y99695
X84709Y98679
X89408Y103632
X89408Y102362
X90678Y100330
X90678Y98806
X89408Y104394
X83947Y102743
X85979Y97282
X90678Y97282
X97155Y101473
X97917Y100584
X97917Y99695
X97917Y98679
X102616Y103632
X102616Y102362
X103886Y100330
X103886Y98806
X102616Y104394
X97155Y102743
X99187Y97282
X103886Y97282
X110363Y101473
X111125Y100584
X111125Y99695
X111125Y98679
X115824Y103632
X115824Y102362
X117094Y100330
X117094Y98806
X115824Y104394
X110363Y102743
X112395Y97282
X117094Y97282
X123571Y101473
X124333Y100584
X124333Y99695
X124333Y98679
X129032Y103632
X129032Y102362
X130302Y100330
X130302Y98806
X129032Y104394
X123571Y102743
X125603Y97282
X130302Y97282
X70739Y26797
X5461Y111252
X5461Y110363
X5461Y109347
X10160Y114300
X10160Y113030
X11430Y110998
X11430Y109474
X10160Y115062
X4699Y113411
X6731Y107950
X11430Y107950
X17907Y112141
X18669Y111252
X18669Y110363
X18669Y109347
X23368Y114300
X23368Y113030
X24638Y110998
X24638Y109474
X23368Y115062
X17907Y113411
X19939Y107950
X24638Y107950
X31115Y112141
X31877Y111252
X31877Y110363
X31877Y109347
X36576Y114300
X36576Y113030
X37846Y110998
X37846Y109474
X36576Y115062
X31115Y113411
X33147Y107950
X37846Y107950
X44323Y112141
X45085Y111252
X45085Y110363
X45085Y109347
X49784Y114300
X49784Y113030
X51054Y110998
X51054Y109474
X49784Y115062
X44323Y113411
X46355Y107950
X51054Y107950
X57531Y112141
X58293Y111252
X58293Y110363
X58293Y109347
X62992Y114300
X62992Y113030
X64262Y110998
X64262Y109474
X62992Y115062
X57531Y113411
X59563Y107950
X64262Y107950
X70739Y112141
X71501Y111252
X71501Y110363
X71501Y109347
X76200Y114300
X76200Y113030
X77470Y110998
X77470Y109474
X76200Y115062
X70739Y113411
X72771Y107950
X77470Y107950
X83947Y112141
X84709Y111252
X84709Y110363
X84709Y109347
X89408Y114300
X89408Y113030
X90678Y110998
X90678Y109474
X89408Y115062
X83947Y113411
X85979Y107950
X90678Y107950
X97155Y112141
X97917Y111252
X97917Y110363
X97917Y109347
X102616Y114300
X102616Y113030
X103886Y110998
X103886Y109474
X102616Y115062
X97155Y113411
X99187Y107950
X103886Y107950
X110363Y112141
X111125Y111252
X111125Y110363
X111125Y109347
X115824Y114300
X115824Y113030
X117094Y110998
X117094Y109474
X115824Y115062
X110363Y113411
X112395Y107950
X117094Y107950
X123571Y112141
X124333Y111252
X124333Y110363
X124333Y109347
X129032Y114300
X129032Y113030
X130302Y110998
X130302Y109474
X129032Y115062
X123571Y113411
X125603Y107950
X130302Y107950
X4699Y122809
X5461Y121920
X5461Y121031
X5461Y120015
X10160Y124968
X10160Y123698
X11430Y121666
X11430Y120142
X10160Y125730
X4699Y124079
X6731Y118618
X11430Y118618
X17907Y122809
X18669Y121920
X18669Y121031
X18669Y120015
X23368Y124968
X23368Y123698
X24638Y121666
X24638Y120142
X23368Y125730
X17907Y124079
X19939Y118618
X24638Y118618
X31115Y122809
X31877Y121920
X31877Y121031
X31877Y120015
X36576Y124968
X36576Y123698
X37846Y121666
X37846Y120142
X36576Y125730
X31115Y124079
X33147Y118618
X37846Y118618
X44323Y122809
X45085Y121920
X45085Y121031
X45085Y120015
X49784Y124968
X49784Y123698
X51054Y121666
X51054Y120142
X49784Y125730
X44323Y124079
X46355Y118618
X51054Y118618
X57531Y122809
X58293Y121920
X58293Y121031
X58293Y120015
X62992Y124968
X62992Y123698
X64262Y121666
X64262Y120142
X62992Y125730
X57531Y124079
X59563Y118618
X64262Y118618
X70739Y122809
X71501Y121920
X71501Y121031
X71501Y120015
X76200Y124968
X76200Y123698
X77470Y121666
X77470Y120142
X76200Y125730
X70739Y124079
X72771Y118618
X77470Y118618
X83947Y122809
X84709Y121920
X84709Y121031
X84709Y120015
X89408Y124968
X89408Y123698
X90678Y121666
X90678Y120142
X89408Y125730
X83947Y124079
X85979Y118618
X90678Y118618
X97155Y122809
X97917Y121920
X97917Y121031
X97917Y120015
X102616Y124968
X102616Y123698
X103886Y121666
X103886Y120142
X102616Y125730
X97155Y124079
X99187Y118618
X103886Y118618
X110363Y122809
X111125Y121920
X111125Y121031
X111125Y120015
X115824Y124968
X115824Y123698
X117094Y121666
X117094Y120142
X115824Y125730
X110363Y124079
X112395Y118618
X117094Y118618
X123571Y122809
X124333Y121920
X124333Y121031
X124333Y120015
X129032Y124968
X129032Y123698
X130302Y121666
X130302Y120142
X129032Y125730
X123571Y124079
X125603Y118618
X130302Y118618
X4699Y133477
X5461Y132588
X5461Y131699
X5461Y130683
X10160Y135636
X10160Y134366
X11430Y132334
X11430Y130810
X10160Y136398
X4699Y134747
X6731Y129286
X11430Y129286
X17907Y133477
X18669Y132588
X18669Y131699
X18669Y130683
X23368Y135636
X23368Y134366
X24638Y132334
X24638Y130810
X23368Y136398
X17907Y134747
X19939Y129286
X24638Y129286
X31115Y133477
X31877Y132588
X31877Y131699
X31877Y130683
X36576Y135636
X36576Y134366
X37846Y132334
X37846Y130810
X36576Y136398
X31115Y134747
X33147Y129286
X37846Y129286
X44323Y133477
X45085Y132588
X45085Y131699
X45085Y130683
X49784Y135636
X49784Y134366
X51054Y132334
X51054Y130810
X49784Y136398
X44323Y134747
X46355Y129286
X51054Y129286
X57531Y133477
X58293Y132588
X58293Y131699
X58293Y130683
X62992Y135636
X62992Y134366
X64262Y132334
X64262Y130810
X62992Y136398
X57531Y134747
X59563Y129286
X64262Y129286
X70739Y133477
X71501Y132588
X71501Y131699
X71501Y130683
X76200Y135636
X76200Y134366
X77470Y132334
X77470Y130810
X76200Y136398
X70739Y134747
X72771Y129286
X77470Y129286
X83947Y133477
X84709Y132588
X84709Y131699
X84709Y130683
X89408Y135636
X89408Y134366
X90678Y132334
X90678Y130810
X89408Y136398
X83947Y134747
X85979Y129286
X90678Y129286
X97155Y133477
X97917Y132588
X97917Y131699
X97917Y130683
X102616Y135636
X102616Y134366
X103886Y132334
X103886Y130810
X102616Y136398
X97155Y134747
X99187Y129286
X103886Y129286
X110363Y133477
X111125Y132588
X111125Y131699
X111125Y130683
X115824Y135636
X115824Y134366
X117094Y132334
X117094Y130810
X115824Y136398
X110363Y134747
X112395Y129286
X117094Y129286
X123571Y133477
X124333Y132588
X124333Y131699
X124333Y130683
X129032Y135636
X129032Y134366
X130302Y132334
X130302Y130810
X129032Y136398
X123571Y134747
X125603Y129286
X130302Y129286
X4699Y144145
X5461Y143256
X5461Y142367
X5461Y141351
X10160Y146304
X10160Y145034
X11430Y143002
X11430Y141478
X10160Y147066
X4699Y145415
X6731Y139954
X11430Y139954
X17907Y144145
X18669Y143256
X18669Y142367
X18669Y141351
X23368Y146304
X23368Y145034
X24638Y143002
X24638Y141478
X23368Y147066
X17907Y145415
X19939Y139954
X24638Y139954
X31115Y144145
X31877Y143256
X31877Y142367
X31877Y141351
X36576Y146304
X36576Y145034
X37846Y143002
X37846Y141478
X36576Y147066
X31115Y145415
X33147Y139954
X37846Y139954
X44323Y144145
X45085Y143256
X45085Y142367
X45085Y141351
X49784Y146304
X49784Y145034
X51054Y143002
X51054Y141478
X49784Y147066
X44323Y145415
X46355Y139954
X51054Y139954
X57531Y144145
X58293Y143256
X58293Y142367
X58293Y141351
X62992Y146304
X62992Y145034
X64262Y143002
X64262Y141478
X62992Y147066
X57531Y145415
X59563Y139954
X64262Y139954
X70739Y144145
X71501Y143256
X71501Y142367
X71501Y141351
X76200Y146304
X76200Y145034
X77470Y143002
X77470Y141478
X76200Y147066
X70739Y145415
X72771Y139954
X77470Y139954
X83947Y144145
X84709Y143256
X84709Y142367
X84709Y141351
X89408Y146304
X89408Y145034
X90678Y143002
X90678Y141478
X89408Y147066
X83947Y145415
X85979Y139954
X90678Y139954
X97155Y144145
X97917Y143256
X97917Y142367
X97917Y141351
X102616Y146304
X102616Y145034
X103886Y143002
X103886Y141478
X102616Y147066
X97155Y145415
X99187Y139954
X103886Y139954
X110363Y144145
X111125Y143256
X111125Y142367
X111125Y141351
X115824Y146304
X115824Y145034
X117094Y143002
X117094Y141478
X115824Y147066
X110363Y145415
X112395Y139954
X117094Y139954
X123571Y144145
X124333Y143256
X124333Y142367
X124333Y141351
X129032Y146304
X129032Y145034
X130302Y143002
X130302Y141478
X129032Y147066
X123571Y145415
X125603Y139954
X130302Y139954
X4699Y154813
X5461Y153924
X5461Y153035
X5461Y152019
X10160Y156972
X10160Y155702
X11430Y153670
X11430Y152146
X10160Y157734
X4699Y156083
X6731Y150622
X11430Y150622
X17907Y154813
X18669Y153924
X18669Y153035
X18669Y152019
X23368Y156972
X23368Y155702
X24638Y153670
X24638Y152146
X23368Y157734
X17907Y156083
X19939Y150622
X24638Y150622
X31115Y154813
X31877Y153924
X31877Y153035
X31877Y152019
X36576Y156972
X36576Y155702
X37846Y153670
X37846Y152146
X36576Y157734
X31115Y156083
X33147Y150622
X37846Y150622
X44323Y154813
X45085Y153924
X45085Y153035
X45085Y152019
X49784Y156972
X49784Y155702
X51054Y153670
X51054Y152146
X49784Y157734
X44323Y156083
X46355Y150622
X51054Y150622
X57531Y154813
X58293Y153924
X58293Y153035
X58293Y152019
X62992Y156972
X62992Y155702
X64262Y153670
X64262Y152146
X62992Y157734
X57531Y156083
X59563Y150622
X64262Y150622
X70739Y154813
X71501Y153924
X71501Y153035
X71501Y152019
X76200Y156972
X76200Y155702
X77470Y153670
X77470Y152146
X76200Y157734
X70739Y156083
X72771Y150622
X77470Y150622
X83947Y154813
X84709Y153924
X84709Y153035
X84709Y152019
X89408Y156972
X89408Y155702
X90678Y153670
X90678Y152146
X89408Y157734
X83947Y156083
X85979Y150622
X90678Y150622
X97155Y154813
X97917Y153924
X97917Y153035
X97917Y152019
X102616Y156972
X102616Y155702
X103886Y153670
X103886Y152146
X102616Y157734
X97155Y156083
X99187Y150622
X103886Y150622
X110363Y154813
X111125Y153924
X111125Y153035
X111125Y152019
X115824Y156972
X115824Y155702
X117094Y153670
X117094Y152146
X115824Y157734
X110363Y156083
X112395Y150622
X117094Y150622
X123571Y154813
X124333Y153924
X124333Y153035
X124333Y152019
X129032Y156972
X129032Y155702
X130302Y153670
X130302Y152146
X129032Y157734
X123571Y156083
X125603Y150622
X4699Y5461
X5461Y4572
X5461Y3683
X5461Y2667
X10160Y7620
X10160Y6350
X11430Y4318
X11430Y2794
X10160Y8382
X4699Y6731
X6731Y1270
X11430Y1270
X17907Y5461
X18669Y4572
X18669Y3683
X18669Y2667
X23368Y7620
X23368Y6350
X24638Y4318
X24638Y2794
X23368Y8382
X17907Y6731
X19939Y1270
X24638Y1270
X31115Y5461
X31877Y4572
X31877Y3683
X31877Y2667
X36576Y7620
X36576Y6350
X37846Y4318
X37846Y2794
X36576Y8382
X31115Y6731
X33147Y1270
X37846Y1270
X44323Y5461
X45085Y4572
X45085Y3683
X45085Y2667
X49784Y7620
X49784Y6350
X51054Y4318
X51054Y2794
X49784Y8382
X44323Y6731
X46355Y1270
X51054Y1270
X57531Y5461
X58293Y4572
X58293Y3683
X58293Y2667
X62992Y7620
X62992Y6350
X64262Y4318
X64262Y2794
X62992Y8382
X57531Y6731
X59563Y1270
X64262Y1270
X70739Y5461
X71501Y4572
X71501Y3683
X71501Y2667
X76200Y7620
X76200Y6350
X77470Y4318
X77470Y2794
X76200Y8382
X70739Y6731
X72771Y1270
X77470Y1270
X83947Y5461
X84709Y4572
X84709Y3683
X84709Y2667
X89408Y7620
X89408Y6350
X90678Y4318
X90678Y2794
X89408Y8382
X83947Y6731
X85979Y1270
X90678Y1270
X97155Y5461
X97917Y4572
X97917Y3683
X97917Y2667
X102616Y7620
X102616Y6350
X103886Y4318
X103886Y2794
X102616Y8382
X97155Y6731
X99187Y1270
X103886Y1270
X110363Y5461
X111125Y4572
X111125Y3683
X111125Y2667
X115824Y7620
X115824Y6350
X117094Y4318
X117094Y2794
X115824Y8382
X110363Y6731
X112395Y1270
X117094Y1270
X123571Y5461
X124333Y4572
X124333Y3683
X124333Y2667
X129032Y7620
X129032Y6350
X130302Y4318
X130302Y2794
X129032Y8382
X123571Y6731
X125603Y1270
X130302Y1270
X4699Y16129
X5461Y15240
X5461Y14351
X5461Y13335
X10160Y18288
X10160Y17018
X11430Y14986
X11430Y13462
X10160Y19050
X4699Y17399
X6731Y11938
X11430Y11938
X17907Y16129
X18669Y15240
X18669Y14351
X18669Y13335
X23368Y18288
X23368Y17018
X24638Y14986
X24638Y13462
X23368Y19050
X17907Y17399
X19939Y11938
X24638Y11938
X31115Y16129
X31877Y15240
X31877Y14351
X31877Y13335
X36576Y18288
X36576Y17018
X37846Y14986
X37846Y13462
X36576Y19050
X31115Y17399
X33147Y11938
X37846Y11938
X44323Y16129
X45085Y15240
X45085Y14351
X45085Y13335
X49784Y18288
X49784Y17018
X51054Y14986
X51054Y13462
X49784Y19050
X44323Y17399
X46355Y11938
X51054Y11938
X57531Y16129
X58293Y15240
X58293Y14351
X58293Y13335
X62992Y18288
X62992Y17018
X64262Y14986
X64262Y13462
X62992Y19050
X57531Y17399
X59563Y11938
X64262Y11938
X70739Y16129
X71501Y15240
X71501Y14351
X71501Y13335
X76200Y18288
X76200Y17018
X77470Y14986
X77470Y13462
X76200Y19050
X70739Y17399
X72771Y11938
X77470Y11938
X83947Y16129
X84709Y15240
X84709Y14351
X84709Y13335
X89408Y18288
X89408Y17018
X90678Y14986
X90678Y13462
X89408Y19050
X83947Y17399
X85979Y11938
X90678Y11938
X97155Y16129
X97917Y15240
X97917Y14351
X97917Y13335
X102616Y18288
X102616Y17018
X103886Y14986
X103886Y13462
X102616Y19050
X97155Y17399
X99187Y11938
X103886Y11938
X110363Y16129
X111125Y15240
X111125Y14351
X111125Y13335
X115824Y18288
X115824Y17018
X117094Y14986
X117094Y13462
X115824Y19050
X110363Y17399
X112395Y11938
X117094Y11938
X123571Y16129
X124333Y15240
X124333Y14351
X124333Y13335
X129032Y18288
X129032Y17018
X130302Y14986
X130302Y13462
X129032Y19050
X123571Y17399
X125603Y11938
X130302Y11938
X4699Y26797
X5461Y25908
X5461Y25019
X5461Y24003
X10160Y28956
X10160Y27686
X11430Y25654
X11430Y24130
X10160Y29718
X4699Y28067
X6731Y22606
X11430Y22606
X17907Y26797
X18669Y25908
X18669Y25019
X18669Y24003
X23368Y28956
X23368Y27686
X24638Y25654
X24638Y24130
X23368Y29718
X17907Y28067
X19939Y22606
X24638Y22606
X31115Y26797
X31877Y25908
X31877Y25019
X31877Y24003
X36576Y28956
X36576Y27686
X37846Y25654
X37846Y24130
X36576Y29718
X31115Y28067
X33147Y22606
X37846Y22606
X44323Y26797
X45085Y25908
X45085Y25019
X45085Y24003
X49784Y28956
X49784Y27686
X51054Y25654
X51054Y24130
X49784Y29718
X44323Y28067
X46355Y22606
X51054Y22606
X57531Y26797
X58293Y25908
X58293Y25019
X58293Y24003
X62992Y28956
X62992Y27686
X64262Y25654
X64262Y24130
X62992Y29718
X57531Y28067
X59563Y22606
X64262Y22606
X4699Y112141
X71501Y25908
X71501Y25019
X71501Y24003
X76200Y28956
X76200Y27686
X77470Y25654
X77470Y24130
X76200Y29718
X70739Y28067
X72771Y22606
X77470Y22606
X83947Y26797
X84709Y25908
X84709Y25019
X84709Y24003
X89408Y28956
X89408Y27686
X90678Y25654
X90678Y24130
X89408Y29718
X83947Y28067
X85979Y22606
X90678Y22606
X97155Y26797
X97917Y25908
X97917Y25019
X97917Y24003
X102616Y28956
X102616Y27686
X103886Y25654
X103886Y24130
X102616Y29718
X97155Y28067
X99187Y22606
X103886Y22606
X110363Y26797
X111125Y25908
X111125Y25019
X111125Y24003
X115824Y28956
X115824Y27686
X117094Y25654
X117094Y24130
X115824Y29718
X110363Y28067
X112395Y22606
X117094Y22606
X123571Y26797
X124333Y25908
X124333Y25019
X124333Y24003
X129032Y28956
X129032Y27686
X130302Y25654
X130302Y24130
X129032Y29718
X123571Y28067
X125603Y22606
X130302Y22606
X4699Y37465
X5461Y36576
X5461Y35687
X5461Y34671
X10160Y39624
X10160Y38354
X11430Y36322
X11430Y34798
X10160Y40386
X4699Y38735
X6731Y33274
X11430Y33274
X17907Y37465
X18669Y36576
X18669Y35687
X18669Y34671
X23368Y39624
X23368Y38354
X24638Y36322
X24638Y34798
X23368Y40386
X17907Y38735
X19939Y33274
X24638Y33274
X31115Y37465
X31877Y36576
X31877Y35687
X31877Y34671
X36576Y39624
X36576Y38354
X37846Y36322
X37846Y34798
X36576Y40386
X31115Y38735
X33147Y33274
X37846Y33274
X44323Y37465
X45085Y36576
X45085Y35687
X45085Y34671
X49784Y39624
X49784Y38354
X51054Y36322
X51054Y34798
X49784Y40386
X44323Y38735
X46355Y33274
X51054Y33274
X57531Y37465
X58293Y36576
X58293Y35687
X58293Y34671
X62992Y39624
X62992Y38354
X64262Y36322
X64262Y34798
X62992Y40386
X57531Y38735
X59563Y33274
X64262Y33274
X70739Y37465
X71501Y36576
X71501Y35687
X71501Y34671
X76200Y39624
X76200Y38354
X77470Y36322
X77470Y34798
X76200Y40386
X70739Y38735
X72771Y33274
X77470Y33274
X83947Y37465
X84709Y36576
X84709Y35687
X84709Y34671
X89408Y39624
X89408Y38354
X90678Y36322
X90678Y34798
X89408Y40386
X83947Y38735
X85979Y33274
X90678Y33274
X97155Y37465
X97917Y36576
X97917Y35687
X97917Y34671
X102616Y39624
X102616Y38354
X103886Y36322
X103886Y34798
X102616Y40386
X97155Y38735
X99187Y33274
X103886Y33274
X110363Y37465
X111125Y36576
X111125Y35687
X111125Y34671
X115824Y39624
X115824Y38354
X117094Y36322
X117094Y34798
X115824Y40386
X110363Y38735
X112395Y33274
X117094Y33274
X123571Y37465
X124333Y36576
X124333Y35687
X124333Y34671
X129032Y39624
X129032Y38354
X130302Y36322
X130302Y34798
X129032Y40386
X123571Y38735
X125603Y33274
X130302Y33274
X4699Y48133
X5461Y47244
X5461Y46355
X5461Y45339
X10160Y50292
X10160Y49022
X11430Y46990
X11430Y45466
X10160Y51054
X4699Y49403
X6731Y43942
X11430Y43942
X17907Y48133
X18669Y47244
X18669Y46355
X18669Y45339
X23368Y50292
X23368Y49022
X24638Y46990
X24638Y45466
X23368Y51054
X17907Y49403
X19939Y43942
X24638Y43942
X31115Y48133
X31877Y47244
X31877Y46355
X31877Y45339
X36576Y50292
X36576Y49022
X37846Y46990
X37846Y45466
X36576Y51054
X31115Y49403
X33147Y43942
X37846Y43942
X44323Y48133
X45085Y47244
X45085Y46355
X45085Y45339
X49784Y50292
X49784Y49022
X51054Y46990
X51054Y45466
X49784Y51054
X44323Y49403
X46355Y43942
X51054Y43942
X57531Y48133
X58293Y47244
X58293Y46355
X58293Y45339
X62992Y50292
X62992Y49022
X64262Y46990
X64262Y45466
X62992Y51054
X57531Y49403
X59563Y43942
X64262Y43942
X70739Y48133
X71501Y47244
X71501Y46355
X71501Y45339
X76200Y50292
X76200Y49022
X77470Y46990
X77470Y45466
X76200Y51054
X70739Y49403
X72771Y43942
X77470Y43942
X83947Y48133
X84709Y47244
X84709Y46355
X84709Y45339
X89408Y50292
X89408Y49022
X90678Y46990
X90678Y45466
X89408Y51054
X83947Y49403
X85979Y43942
X90678Y43942
X97155Y48133
X97917Y47244
X97917Y46355
X97917Y45339
X102616Y50292
X102616Y49022
X103886Y46990
X103886Y45466
X102616Y51054
X97155Y49403
X99187Y43942
X103886Y43942
X110363Y48133
X111125Y47244
X111125Y46355
X111125Y45339
X115824Y50292
X115824Y49022
X117094Y46990
X117094Y45466
X115824Y51054
X110363Y49403
X112395Y43942
X117094Y43942
X123571Y48133
X124333Y47244
X124333Y46355
X124333Y45339
X129032Y50292
X129032Y49022
X130302Y46990
X130302Y45466
X129032Y51054
X123571Y49403
X125603Y43942
X130302Y43942
X130302Y150622
M30