M48
;GenerationSoftware,Autodesk,EAGLE,9.5.2*%
;CreationDate,2021-06-30T15:02:29Z*%
FMAT,2
ICI,OFF
METRIC,TZ,000.000
T5C0.381
T4C1.000
T3C1.016
T2C1.200
T1C3.302
%
G90
M71
T1
X48768Y132080
X28448Y152400
X28448Y132080
X74676Y152400
X74676Y132080
X54356Y152400
X54356Y132080
X100584Y152400
X100584Y132080
X80264Y152400
X80264Y132080
X126492Y152400
X126492Y132080
X106172Y152400
X106172Y132080
X22860Y178308
X22860Y157988
X22860Y152400
X106172Y106172
X106172Y126492
X126492Y106172
X126492Y126492
X100584Y28448
X100584Y48768
X54356Y28448
X54356Y48768
X80264Y106172
X80264Y126492
X100584Y106172
X100584Y126492
X54356Y106172
X54356Y178308
X54356Y157988
X48768Y22860
X2540Y2540
X54356Y126492
X74676Y106172
X74676Y126492
X28448Y106172
X28448Y126492
X74676Y28448
X74676Y48768
X28448Y28448
X28448Y48768
X48768Y106172
X48768Y126492
X2540Y106172
X2540Y126492
X22860Y106172
X48768Y28448
X2540Y22860
X22860Y2540
X22860Y22860
X22860Y126492
X106172Y80264
X106172Y100584
X74676Y74676
X126492Y80264
X100584Y178308
X48768Y48768
X2540Y28448
X2540Y48768
X126492Y100584
X80264Y80264
X80264Y100584
X100584Y80264
X100584Y100584
X22860Y28448
X22860Y48768
X126492Y178308
X126492Y157988
X54356Y80264
X54356Y100584
X74676Y80264
X74676Y100584
X28448Y80264
X106172Y178308
X2540Y157988
X106172Y2540
X106172Y22860
X28448Y100584
X48768Y80264
X48768Y100584
X2540Y80264
X2540Y100584
X126492Y2540
X126492Y22860
X80264Y2540
X48768Y178308
X22860Y80264
X22860Y100584
X106172Y54356
X106172Y74676
X126492Y54356
X48768Y157988
X28448Y178308
X28448Y157988
X80264Y22860
X126492Y74676
X80264Y54356
X80264Y74676
X100584Y54356
X100584Y74676
X100584Y2540
X100584Y22860
X54356Y2540
X54356Y22860
X54356Y54356
X54356Y74676
X74676Y54356
X28448Y54356
X28448Y74676
X48768Y54356
X106172Y157988
X100584Y157988
X80264Y178308
X48768Y74676
X2540Y54356
X2540Y178308
X2540Y74676
X22860Y54356
X22860Y74676
X80264Y157988
X74676Y2540
X74676Y22860
X28448Y2540
X106172Y28448
X106172Y48768
X126492Y28448
X126492Y48768
X80264Y28448
X28448Y22860
X48768Y2540
X74676Y178308
X74676Y157988
X80264Y48768
X22860Y132080
X2540Y152400
X2540Y132080
X48768Y152400
T2
X99568Y173441
X99568Y169941
X99568Y166441
X99568Y162941
X73660Y173441
X73660Y169941
X73660Y166441
X73660Y162941
X47752Y173441
X47752Y169941
X47752Y166441
X47752Y162941
X21844Y173441
X21844Y169941
X21844Y166441
X21844Y162941
X125476Y147533
X125476Y144033
X125476Y140533
X125476Y137033
X99568Y147533
X99568Y144033
X99568Y140533
X99568Y137033
X73660Y147533
X73660Y144033
X73660Y140533
X73660Y137033
X47752Y147533
X47752Y144033
X47752Y140533
X47752Y137033
X21844Y147533
X21844Y144033
X21844Y140533
X21844Y137033
X125476Y118125
X125476Y114625
X125476Y111125
X99568Y121625
X99568Y118125
X99568Y114625
X99568Y111125
X73660Y121625
X73660Y118125
X73660Y114625
X73660Y111125
X47752Y121625
X47752Y118125
X47752Y114625
X47752Y111125
X21844Y121625
X21844Y118125
X21844Y114625
X21844Y111125
X125476Y95717
X125476Y92217
X125476Y88717
X125476Y85217
X99568Y95717
X99568Y92217
X99568Y88717
X99568Y85217
X73660Y95717
X73660Y92217
X73660Y88717
X73660Y85217
X47752Y95717
X47752Y92217
X47752Y88717
X47752Y85217
X21844Y95717
X21844Y92217
X21844Y88717
X21844Y85217
X125476Y69809
X125476Y66309
X125476Y62809
X125476Y59309
X99568Y69809
X99568Y66309
X99568Y62809
X99568Y59309
X73660Y69809
X73660Y66309
X73660Y62809
X73660Y59309
X125476Y121625
X47752Y69809
X47752Y66309
X47752Y62809
X47752Y59309
X21844Y69809
X21844Y66309
X21844Y62809
X21844Y59309
X125476Y43901
X125476Y40401
X125476Y36901
X125476Y33401
X99568Y43901
X99568Y40401
X99568Y36901
X99568Y33401
X73660Y43901
X73660Y40401
X73660Y36901
X73660Y33401
X47752Y43901
X47752Y40401
X47752Y36901
X47752Y33401
X21844Y43901
X21844Y40401
X21844Y36901
X21844Y33401
X125476Y17993
X125476Y14493
X125476Y10993
X125476Y7493
X99568Y17993
X99568Y14493
X99568Y10993
X99568Y7493
X73660Y17993
X73660Y14493
X73660Y10993
X73660Y7493
X47752Y17993
X47752Y14493
X47752Y10993
X47752Y7493
X21844Y17993
X21844Y14493
X21844Y10993
X21844Y7493
X125476Y173441
X125476Y169941
X125476Y166441
X125476Y162941
T3
X1270Y41148
X1270Y38608
X1270Y36068
X1270Y33528
X78994Y43688
X78994Y41148
X78994Y38608
X78994Y36068
X104902Y17780
X104902Y15240
X104902Y12700
X104902Y10160
X104902Y7620
X78994Y33528
X27178Y59436
X1270Y69596
X1270Y67056
X78994Y17780
X78994Y15240
X78994Y12700
X78994Y10160
X78994Y7620
X104902Y43688
X53086Y43688
X53086Y41148
X53086Y38608
X53086Y17780
X53086Y15240
X53086Y12700
X53086Y10160
X53086Y7620
X53086Y36068
X53086Y33528
X104902Y41148
X104902Y38608
X27178Y17780
X27178Y15240
X27178Y12700
X27178Y10160
X27178Y7620
X104902Y36068
X104902Y33528
X27178Y43688
X27178Y41148
X1270Y17780
X1270Y15240
X1270Y12700
X1270Y10160
X1270Y7620
X27178Y38608
X27178Y36068
X27178Y33528
X1270Y64516
X27178Y67056
X27178Y69596
X53086Y59436
X53086Y61976
X53086Y64516
X53086Y67056
X53086Y69596
X78994Y59436
X78994Y61976
X78994Y64516
X78994Y67056
X78994Y69596
X104902Y59436
X104902Y61976
X104902Y64516
X104902Y67056
X104902Y69596
X1270Y85344
X1270Y87884
X1270Y90424
X1270Y92964
X1270Y95504
X27178Y85344
X27178Y87884
X27178Y90424
X27178Y92964
X27178Y95504
X53086Y85344
X53086Y87884
X53086Y90424
X53086Y92964
X53086Y95504
X78994Y85344
X78994Y87884
X78994Y90424
X78994Y92964
X78994Y95504
X104902Y85344
X104902Y87884
X104902Y90424
X104902Y92964
X104902Y95504
X1270Y111252
X1270Y113792
X1270Y116332
X1270Y118872
X1270Y121412
X27178Y111252
X27178Y113792
X27178Y116332
X27178Y118872
X27178Y121412
X53086Y111252
X53086Y113792
X53086Y116332
X53086Y118872
X53086Y121412
X78994Y111252
X78994Y113792
X78994Y116332
X78994Y118872
X78994Y121412
X1270Y165608
X104902Y111252
X104902Y113792
X27178Y64516
X104902Y116332
X104902Y118872
X104902Y121412
X1270Y137160
X1270Y139700
X1270Y142240
X1270Y144780
X1270Y147320
X27178Y137160
X27178Y139700
X27178Y142240
X27178Y144780
X27178Y147320
X53086Y137160
X53086Y139700
X53086Y142240
X53086Y144780
X53086Y147320
X78994Y137160
X78994Y139700
X78994Y142240
X78994Y144780
X78994Y147320
X104902Y137160
X104902Y139700
X104902Y142240
X104902Y144780
X104902Y147320
X1270Y163068
X1270Y168148
X1270Y170688
X1270Y173228
X27178Y163068
X27178Y165608
X27178Y168148
X27178Y170688
X27178Y173228
X53086Y163068
X53086Y165608
X53086Y168148
X53086Y170688
X53086Y173228
X78994Y163068
X78994Y165608
X78994Y168148
X78994Y170688
X78994Y173228
X104902Y163068
X104902Y165608
X104902Y168148
X104902Y170688
X104902Y173228
X1270Y61976
X1270Y59436
X27178Y61976
X1270Y43688
T4
X8001Y159893
X38608Y156845
X43307Y159893
X38608Y162814
X33909Y159893
X64516Y156845
X69215Y159893
X64516Y162814
X59817Y159893
X90424Y156845
X95123Y159893
X90424Y162814
X85725Y159893
X116332Y156845
X121031Y159893
X116332Y162814
X111633Y159893
X12700Y136906
X12700Y1397
X17399Y4445
X12700Y7366
X8001Y4445
X38608Y1397
X43307Y4445
X38608Y7366
X33909Y4445
X64516Y1397
X69215Y4445
X64516Y7366
X59817Y4445
X90424Y1397
X95123Y4445
X90424Y7366
X85725Y4445
X116332Y1397
X121031Y4445
X116332Y7366
X111633Y4445
X12700Y27305
X17399Y30353
X12700Y33274
X8001Y30353
X38608Y27305
X43307Y30353
X38608Y33274
X33909Y30353
X64516Y27305
X69215Y30353
X64516Y33274
X59817Y30353
X90424Y27305
X95123Y30353
X90424Y33274
X85725Y30353
X116332Y27305
X121031Y30353
X116332Y33274
X111633Y30353
X12700Y53213
X17399Y56261
X12700Y59182
X8001Y56261
X38608Y53213
X43307Y56261
X38608Y59182
X33909Y56261
X64516Y53213
X69215Y56261
X64516Y59182
X59817Y56261
X90424Y53213
X95123Y56261
X90424Y59182
X85725Y56261
X116332Y53213
X121031Y56261
X116332Y59182
X111633Y56261
X12700Y79121
X17399Y82169
X12700Y85090
X8001Y82169
X38608Y79121
X43307Y82169
X38608Y85090
X33909Y82169
X64516Y79121
X69215Y82169
X64516Y85090
X59817Y82169
X90424Y79121
X95123Y82169
X90424Y85090
X85725Y82169
X116332Y79121
X121031Y82169
X116332Y85090
X111633Y82169
X12700Y105029
X17399Y108077
X12700Y110998
X8001Y108077
X38608Y105029
X43307Y108077
X38608Y110998
X33909Y108077
X64516Y105029
X69215Y108077
X64516Y110998
X59817Y108077
X90424Y105029
X95123Y108077
X90424Y110998
X85725Y108077
X116332Y105029
X121031Y108077
X116332Y110998
X111633Y108077
X12700Y130937
X17399Y133985
X8001Y133985
X38608Y130937
X43307Y133985
X38608Y136906
X33909Y133985
X64516Y130937
X69215Y133985
X64516Y136906
X59817Y133985
X90424Y130937
X95123Y133985
X90424Y136906
X85725Y133985
X116332Y130937
X121031Y133985
X116332Y136906
X111633Y133985
X12700Y156845
X17399Y159893
X12700Y162814
T5
X8382Y14097
X11684Y14097
X11684Y12954
X11684Y11811
X8382Y12954
X8382Y11811
X16510Y16129
X5461Y16129
X9271Y9144
X17018Y13462
X34290Y14097
X37592Y14097
X37592Y12954
X37592Y11811
X34290Y12954
X34290Y11811
X42418Y16129
X120142Y119761
X112014Y115443
X112014Y116586
X115316Y115443
X31369Y171577
X42418Y171577
X34290Y167259
X112014Y167259
X115316Y116586
X115316Y117729
X112014Y117729
X94742Y117094
X86995Y112776
X83185Y119761
X94234Y119761
X86106Y115443
X86106Y116586
X112014Y168402
X115316Y167259
X115316Y168402
X34290Y168402
X89408Y115443
X89408Y116586
X89408Y117729
X86106Y117729
X68834Y117094
X61087Y112776
X57277Y119761
X68326Y119761
X60198Y115443
X37592Y167259
X37592Y168402
X37592Y169545
X34290Y169545
X60198Y116586
X63500Y115443
X63500Y116586
X63500Y117729
X60198Y117729
X42926Y117094
X35179Y112776
X31369Y119761
X42418Y119761
X17018Y168910
X9271Y164592
X5461Y171577
X16510Y171577
X34290Y115443
X34290Y116586
X37592Y115443
X37592Y116586
X37592Y117729
X34290Y117729
X17018Y117094
X9271Y112776
X5461Y119761
X115316Y169545
X112014Y169545
X94742Y168910
X86995Y164592
X16510Y119761
X8382Y115443
X8382Y116586
X11684Y115443
X11684Y116586
X11684Y117729
X8382Y117729
X120650Y91186
X112903Y86868
X8382Y167259
X8382Y168402
X11684Y167259
X11684Y168402
X109093Y93853
X120142Y93853
X112014Y89535
X112014Y90678
X115316Y89535
X115316Y90678
X115316Y91821
X112014Y91821
X94742Y91186
X11684Y169545
X8382Y169545
X120650Y143002
X112903Y138684
X86995Y86868
X83185Y93853
X94234Y93853
X86106Y89535
X86106Y90678
X89408Y89535
X89408Y90678
X89408Y91821
X86106Y91821
X109093Y145669
X83185Y171577
X94234Y171577
X86106Y167259
X68834Y91186
X61087Y86868
X57277Y93853
X68326Y93853
X60198Y89535
X60198Y90678
X63500Y89535
X63500Y90678
X63500Y91821
X86106Y168402
X120142Y145669
X112014Y141351
X112014Y142494
X60198Y91821
X42926Y91186
X35179Y86868
X31369Y93853
X42418Y93853
X34290Y89535
X34290Y90678
X37592Y89535
X37592Y90678
X115316Y141351
X115316Y142494
X115316Y143637
X112014Y143637
X37592Y91821
X34290Y91821
X17018Y91186
X9271Y86868
X5461Y93853
X16510Y93853
X8382Y89535
X8382Y90678
X11684Y89535
X94742Y143002
X86995Y138684
X89408Y167259
X89408Y168402
X11684Y90678
X11684Y91821
X8382Y91821
X120650Y65278
X112903Y60960
X109093Y67945
X120142Y67945
X112014Y63627
X112014Y64770
X89408Y169545
X86106Y169545
X83185Y145669
X94234Y145669
X115316Y63627
X115316Y64770
X115316Y65913
X112014Y65913
X94742Y65278
X86995Y60960
X83185Y67945
X94234Y67945
X86106Y63627
X86106Y141351
X86106Y142494
X89408Y141351
X89408Y142494
X86106Y64770
X89408Y63627
X89408Y64770
X89408Y65913
X86106Y65913
X68834Y65278
X61087Y60960
X57277Y67945
X68326Y67945
X89408Y143637
X86106Y143637
X68834Y143002
X68834Y168910
X60198Y63627
X60198Y64770
X63500Y63627
X63500Y64770
X63500Y65913
X60198Y65913
X42926Y65278
X31369Y67945
X42418Y67945
X61087Y164592
X57277Y171577
X68326Y171577
X61087Y138684
X34290Y63627
X34290Y64770
X37592Y63627
X37592Y64770
X37592Y65913
X34290Y65913
X17018Y65278
X9271Y60960
X5461Y67945
X57277Y145669
X68326Y145669
X60198Y141351
X60198Y142494
X16510Y67945
X8382Y63627
X8382Y64770
X11684Y63627
X11684Y64770
X11684Y65913
X8382Y65913
X120650Y39370
X112903Y35052
X63500Y141351
X63500Y142494
X35179Y60960
X63500Y143637
X109093Y42037
X120142Y42037
X112014Y37719
X112014Y38862
X115316Y37719
X115316Y38862
X115316Y40005
X112014Y40005
X94742Y39370
X60198Y143637
X60198Y167259
X60198Y168402
X120650Y168910
X86995Y35052
X83185Y42037
X94234Y42037
X86106Y37719
X86106Y38862
X89408Y37719
X89408Y38862
X89408Y40005
X86106Y40005
X112903Y164592
X42926Y143002
X35179Y138684
X31369Y145669
X68834Y39370
X61087Y35052
X57277Y42037
X68326Y42037
X60198Y37719
X60198Y38862
X63500Y37719
X63500Y38862
X63500Y40005
X42418Y145669
X34290Y141351
X34290Y142494
X37592Y141351
X60198Y40005
X42926Y39370
X35179Y35052
X31369Y42037
X42418Y42037
X34290Y37719
X34290Y38862
X37592Y37719
X37592Y38862
X37592Y142494
X37592Y143637
X109093Y171577
X120142Y171577
X37592Y40005
X34290Y40005
X17018Y39370
X9271Y35052
X5461Y42037
X16510Y42037
X8382Y37719
X8382Y38862
X11684Y37719
X63500Y167259
X63500Y168402
X34290Y143637
X17018Y143002
X11684Y38862
X11684Y40005
X8382Y40005
X120650Y13462
X112903Y9144
X109093Y16129
X120142Y16129
X112014Y11811
X112014Y12954
X9271Y138684
X5461Y145669
X16510Y145669
X8382Y141351
X115316Y11811
X115316Y12954
X115316Y14097
X112014Y14097
X94742Y13462
X86995Y9144
X83185Y16129
X94234Y16129
X86106Y11811
X8382Y142494
X11684Y141351
X11684Y142494
X63500Y169545
X86106Y12954
X89408Y11811
X89408Y12954
X89408Y14097
X86106Y14097
X68834Y13462
X61087Y9144
X57277Y16129
X68326Y16129
X60198Y169545
X42926Y168910
X35179Y164592
X11684Y143637
X60198Y11811
X60198Y12954
X63500Y11811
X63500Y12954
X63500Y14097
X60198Y14097
X42926Y13462
X35179Y9144
X31369Y16129
X8382Y143637
X120650Y117094
X112903Y112776
X109093Y119761
M30